<?xml version="1.0" encoding="UTF-8"?>
<svg version="1.1" xmlns="http://www.w3.org/2000/svg" width="140" height="138">
<path d="M0 0 C0.42821045 0.74572266 0.8564209 1.49144531 1.29760742 2.25976562 C2.9085472 5.06351874 4.52084824 7.86648349 6.1340332 10.66894531 C6.82792711 11.87501815 7.52129975 13.08139105 8.21411133 14.28808594 C9.21814536 16.03662751 10.22406836 17.78406955 11.23046875 19.53125 C11.87290527 20.64757812 12.5153418 21.76390625 13.17724609 22.9140625 C14.73412992 25.54987974 16.36187194 28.10448387 18.05078125 30.65625 C18.69402344 31.7596875 19.33726563 32.863125 20 34 C19 37 19 37 16.6875 39.125 C12.65531958 43.43849534 10.84836225 48.45491324 9 54 C-4.86 54 -18.72 54 -33 54 C-33 39.63538698 -27.62554998 23.98894233 -18 13 C-17.34 13 -16.68 13 -16 13 C-15.78214844 12.43796875 -15.56429688 11.8759375 -15.33984375 11.296875 C-13.55803354 8.24234321 -11.30073012 6.4754938 -8.5625 4.25 C-7.59441406 3.45078125 -6.62632813 2.6515625 -5.62890625 1.828125 C-3 0 -3 0 0 0 Z " fill="#027102" transform="translate(39,14)"/>
<path d="M0 0 C0.804375 0.21269531 0.804375 0.21269531 1.625 0.4296875 C4.78503827 1.18851248 7.7530169 1.1318792 11 1.125 C12.216875 1.12757812 13.43375 1.13015625 14.6875 1.1328125 C17.38133878 1.02480481 19.43883836 0.7023665 22 0 C22.28609131 0.52730713 22.57218262 1.05461426 22.86694336 1.59790039 C28.17004576 11.35395721 33.48755542 21.07428544 39.35717773 30.50415039 C42 34.7953152 42 34.7953152 42 37 C40.16991133 37.79913872 38.33573034 38.58890755 36.5 39.375 C35.4790625 39.81585938 34.458125 40.25671875 33.40625 40.7109375 C17.15474226 46.86116405 -1.11772185 45.64277793 -17 39 C-18.34397876 38.35506333 -19.68340194 37.69913644 -21 37 C-19.27587395 32.2254971 -16.84823616 27.91499857 -14.375 23.5 C-13.71383179 22.31482788 -13.71383179 22.31482788 -13.03930664 21.10571289 C-2.70887447 2.70887447 -2.70887447 2.70887447 0 0 Z " fill="#047205" transform="translate(61,90)"/>
<path d="M0 0 C8.66717962 1.46766886 15.74236156 10.31319255 20.890625 16.8671875 C28.75102594 28.54133852 32 39.84639525 32 54 C18.47 54 4.94 54 -9 54 C-10.98 48.555 -10.98 48.555 -13 43 C-15.20647545 39.72371827 -16.71750559 38.1883296 -20 36 C-18.24083058 32.3933695 -16.31287749 28.88364305 -14.375 25.37109375 C-14.02743652 24.74018326 -13.67987305 24.10927277 -13.32177734 23.45924377 C-12.58927543 22.13023755 -11.85635686 20.80146091 -11.12304688 19.47290039 C-10.00235518 17.44176851 -8.8839263 15.40940186 -7.765625 13.37695312 C-7.05222089 12.08325747 -6.33868373 10.78963517 -5.625 9.49609375 C-5.12492432 8.58663246 -5.12492432 8.58663246 -4.61474609 7.65879822 C-3.16091506 5.02911974 -1.66837762 2.50256643 0 0 Z " fill="#017001" transform="translate(104,14)"/>
<path d="M0 0 C-1.33314708 3.55347321 -2.91336903 6.73066422 -4.86328125 9.984375 C-5.69956055 11.38816406 -5.69956055 11.38816406 -6.55273438 12.8203125 C-7.13345703 13.78710938 -7.71417969 14.75390625 -8.3125 15.75 C-12.31696152 22.44375448 -16.26285269 29.15263655 -20 36 C-21.423125 35.7525 -21.423125 35.7525 -22.875 35.5 C-29.677061 34.53419012 -36.25319982 34.76618748 -43 36 C-43.61746094 34.87464844 -44.23492187 33.74929687 -44.87109375 32.58984375 C-45.72595637 31.03872829 -46.58147361 29.4879735 -47.4375 27.9375 C-48.10724854 26.72296143 -48.10724854 26.72296143 -48.79052734 25.48388672 C-52.1269687 19.47311767 -55.60864187 13.56932247 -59.30639648 7.77319336 C-61.36710344 4.45334724 -62 3.03687803 -62 -1 C-40.97591245 -9.51361814 -20.46126293 -11.69215024 0 0 Z " fill="#017002" transform="translate(103,12)"/>
<path d="M0 0 C13.86 0 27.72 0 42 0 C44.475 5.94 44.475 5.94 47 12 C48.64865021 13.68449044 50.30864609 15.35839179 52 17 C51.67935006 21.06055479 50.0658688 23.99296097 48.015625 27.45703125 C47.10683594 29.00293945 47.10683594 29.00293945 46.1796875 30.58007812 C45.22449219 32.18012695 45.22449219 32.18012695 44.25 33.8125 C43.62867188 34.86759766 43.00734375 35.92269531 42.3671875 37.00976562 C38.9913985 42.72510459 35.54655362 48.38913559 32 54 C17.076998 44.93456763 6.39825586 32.06390996 2 15 C1.79761719 14.31421875 1.59523438 13.6284375 1.38671875 12.921875 C0.08890223 8.29564467 0 4.98986196 0 0 Z " fill="#027103" transform="translate(6,71)"/>
<path d="M0 0 C13.53 0 27.06 0 41 0 C41 18.46046211 34.57461683 32.42281082 21.875 45.625 C18.16368946 49.15074501 14.6119328 51.79429301 10 54 C5.30989487 47.19677058 1.08102752 40.18297445 -3 33 C-3.57492188 31.99839844 -4.14984375 30.99679688 -4.7421875 29.96484375 C-5.28101562 29.00707031 -5.81984375 28.04929687 -6.375 27.0625 C-6.85710937 26.20785156 -7.33921875 25.35320312 -7.8359375 24.47265625 C-9.06255325 21.86712681 -9.84165264 19.88285339 -10 17 C-8.508935 14.84234124 -6.75683822 13.25649913 -4.859375 11.453125 C-2.20714166 8.22662139 -2.20714166 8.22662139 0 0 Z " fill="#027002" transform="translate(95,71)"/>
<path d="M0 0 C5.34227822 2.85474291 9.48345081 7.73615525 11.76171875 13.31640625 C12.54762778 19.71334024 12.47064828 25.8990147 9.171875 31.5625 C5.48589798 36.14699774 0.55585786 39.82908563 -5.3671875 40.58984375 C-12.37976971 40.88250368 -17.40151357 39.20758471 -23.23828125 35.31640625 C-27.9151871 30.75642305 -29.31908087 25.84516794 -29.61328125 19.44140625 C-29.4744922 14.30621152 -28.40742771 10.40478028 -25.23828125 6.31640625 C-17.84433193 -0.39075331 -9.99454793 -3.0524361 0 0 Z " fill="#016F02" transform="translate(80.23828125,49.68359375)"/>
<path d="M0 0 C2.97922593 -0.02683987 5.95821295 -0.04676037 8.9375 -0.0625 C10.21270508 -0.07506836 10.21270508 -0.07506836 11.51367188 -0.08789062 C12.32255859 -0.09111328 13.13144531 -0.09433594 13.96484375 -0.09765625 C14.7137085 -0.10289307 15.46257324 -0.10812988 16.23413086 -0.11352539 C18 0 18 0 19 1 C19.07226502 2.85287502 19.0838122 4.70833878 19.0625 6.5625 C19.05347656 7.57441406 19.04445313 8.58632813 19.03515625 9.62890625 C19.02355469 10.41136719 19.01195313 11.19382812 19 12 C17.35 12.33 15.7 12.66 14 13 C13.67 14.65 13.34 16.3 13 18 C10.02077407 18.02683987 7.04178705 18.04676037 4.0625 18.0625 C2.78729492 18.07506836 2.78729492 18.07506836 1.48632812 18.08789062 C0.67744141 18.09111328 -0.13144531 18.09433594 -0.96484375 18.09765625 C-1.7137085 18.10289307 -2.46257324 18.10812988 -3.23413086 18.11352539 C-5 18 -5 18 -6 17 C-6.07244053 14.98035801 -6.08377188 12.95832876 -6.0625 10.9375 C-6.05347656 9.83277344 -6.04445313 8.72804688 -6.03515625 7.58984375 C-6.02355469 6.73519531 -6.01195313 5.88054688 -6 5 C-4.35 5 -2.7 5 -1 5 C-0.67 3.35 -0.34 1.7 0 0 Z " fill="#A5CCAD" transform="translate(104,40)"/>
<path d="M0 0 C0.83265381 0.00523682 1.66530762 0.01047363 2.52319336 0.01586914 C3.42231445 0.0190918 4.32143555 0.02231445 5.24780273 0.02563477 C6.66609375 0.03820313 6.66609375 0.03820313 8.11303711 0.05102539 C9.06243164 0.05553711 10.01182617 0.06004883 10.98999023 0.06469727 C13.34356776 0.07652429 15.69702188 0.09300514 18.05053711 0.11352539 C18.05053711 2.09352539 18.05053711 4.07352539 18.05053711 6.11352539 C19.37053711 6.44352539 20.69053711 6.77352539 22.05053711 7.11352539 C22.07741862 8.75927105 22.09687834 10.40513952 22.11303711 12.05102539 C22.12463867 12.96754883 22.13624023 13.88407227 22.14819336 14.82836914 C22.05053711 17.11352539 22.05053711 17.11352539 21.05053711 18.11352539 C18.71756278 18.15445476 16.38348486 18.15594262 14.05053711 18.11352539 C14.05053711 17.12352539 14.05053711 16.13352539 14.05053711 15.11352539 C13.06053711 15.77352539 12.07053711 16.43352539 11.05053711 17.11352539 C7.86303711 17.23852539 7.86303711 17.23852539 5.05053711 17.11352539 C5.05053711 16.78352539 5.05053711 16.45352539 5.05053711 16.11352539 C3.91616211 15.96915039 2.78178711 15.82477539 1.61303711 15.67602539 C-1.94946289 15.11352539 -1.94946289 15.11352539 -2.94946289 14.11352539 C-3.04839229 11.94871742 -3.0791739 9.78058754 -3.07446289 7.61352539 C-3.07704102 6.42758789 -3.07961914 5.24165039 -3.08227539 4.01977539 C-2.90631037 0.16924663 -2.90631037 0.16924663 0 0 Z " fill="#CEE9E6" transform="translate(62.949462890625,15.886474609375)"/>
<path d="M0 0 C1.32 0 2.64 0 4 0 C3.67 1.32 3.34 2.64 3 4 C1.68 4 0.36 4 -1 4 C-1.66 5.65 -2.32 7.3 -3 9 C-2.01 9 -1.02 9 0 9 C0 8.01 0 7.02 0 6 C4.29 6 8.58 6 13 6 C13 6.99 13 7.98 13 9 C13.66 9 14.32 9 15 9 C13.12050295 5.42895561 11.82946843 3.45255699 8 2 C8 1.34 8 0.68 8 0 C11.27233819 0.87262352 13.49087971 1.47390904 15.875 3.9375 C17 6 17 6 17 9 C17.66 9 18.32 9 19 9 C19 11.31 19 13.62 19 16 C18.01 16 17.02 16 16 16 C15.5359375 16.928125 15.5359375 16.928125 15.0625 17.875 C14.375 19.25 13.6875 20.625 13 22 C11.35 22 9.7 22 8 22 C8 21.34 8 20.68 8 20 C8.66 20 9.32 20 10 20 C10 19.34 10 18.68 10 18 C10.99 18 11.98 18 13 18 C13 17.34 13 16.68 13 16 C10.525 15.505 10.525 15.505 8 15 C8 15.66 8 16.32 8 17 C5.03 16.67 2.06 16.34 -1 16 C1.7018576 19.1490712 1.7018576 19.1490712 5 20 C5 20.66 5 21.32 5 22 C0.61703444 21.51300383 -1.03183648 20.16604109 -4 17 C-4.99 16.67 -5.98 16.34 -7 16 C-7 13.69 -7 11.38 -7 9 C-6.34 8.67 -5.68 8.34 -5 8 C-3.96210419 6.35666496 -2.96432076 4.68756133 -2 3 C-1.34 2.01 -0.68 1.02 0 0 Z " fill="#A4D6CE" transform="translate(104,80)"/>
<path d="M0 0 C2.31 0 4.62 0 7 0 C7 0.33 7 0.66 7 1 C5.02 1 3.04 1 1 1 C1 4.63 1 8.26 1 12 C2.98 12 4.96 12 7 12 C7 11.01 7 10.02 7 9 C6.01 8.67 5.02 8.34 4 8 C4.66 6.35 5.32 4.7 6 3 C12.4 2.63076923 12.4 2.63076923 15.4375 4.5 C15.953125 4.995 16.46875 5.49 17 6 C16.125 9.875 16.125 9.875 15 11 C17.475 11.495 17.475 11.495 20 12 C20 8.37 20 4.74 20 1 C18.02 1 16.04 1 14 1 C14 0.67 14 0.34 14 0 C16.31 0 18.62 0 21 0 C21 1.32 21 2.64 21 4 C21.99 4 22.98 4 24 4 C24 4.66 24 5.32 24 6 C23.01 6 22.02 6 21 6 C21 8.97 21 11.94 21 15 C18.36 15 15.72 15 13 15 C13.33 15.99 13.66 16.98 14 18 C11.69 18 9.38 18 7 18 C7.33 17.01 7.66 16.02 8 15 C5.36 15 2.72 15 0 15 C0 10.05 0 5.1 0 0 Z " fill="#DBEFEE" transform="translate(21,84)"/>
<path d="M0 0 C4.62 0 9.24 0 14 0 C14 2.97 14 5.94 14 9 C13.67 8.34 13.34 7.68 13 7 C12.01 7 11.02 7 10 7 C10 5.68 10 4.36 10 3 C8.71387324 4.05978933 8.71387324 4.05978933 8.90234375 6.50390625 C8.91394531 7.51324219 8.92554687 8.52257812 8.9375 9.5625 C8.94652344 10.57441406 8.95554687 11.58632812 8.96484375 12.62890625 C8.97644531 13.41136719 8.98804687 14.19382812 9 15 C7.02 15 5.04 15 3 15 C3.66 13.35 4.32 11.7 5 10 C3.94369738 8.35429841 3.94369738 8.35429841 2 7 C-1.62535976 6.7496423 -1.62535976 6.7496423 -5 7 C-5.33 8.32 -5.66 9.64 -6 11 C-5.34 11.33 -4.68 11.66 -4 12 C-4 12.99 -4 13.98 -4 15 C-5.98 15 -7.96 15 -10 15 C-10 11.37 -10 7.74 -10 4 C-6.7 3.67 -3.4 3.34 0 3 C0 2.01 0 1.02 0 0 Z " fill="#87C09A" transform="translate(32,81)"/>
<path d="M0 0 C2.97 0 5.94 0 9 0 C9 5.61 9 11.22 9 17 C6.03 17 3.06 17 0 17 C0 11.39 0 5.78 0 0 Z " fill="#006B00" transform="translate(27,40)"/>
<path d="M0 0 C3.27233819 0.87262352 5.49087971 1.47390904 7.875 3.9375 C9 6 9 6 9 9 C9.66 9 10.32 9 11 9 C11 11.31 11 13.62 11 16 C10.01 16 9.02 16 8 16 C7.5359375 16.928125 7.5359375 16.928125 7.0625 17.875 C6.375 19.25 5.6875 20.625 5 22 C3.35 22 1.7 22 0 22 C0 21.34 0 20.68 0 20 C0.66 20 1.32 20 2 20 C2 19.34 2 18.68 2 18 C2.99 18 3.98 18 5 18 C5 17.34 5 16.68 5 16 C2.525 15.505 2.525 15.505 0 15 C0 15.66 0 16.32 0 17 C-2.97 16.67 -5.94 16.34 -9 16 C-6.2981424 19.1490712 -6.2981424 19.1490712 -3 20 C-3 20.66 -3 21.32 -3 22 C-8.04424468 21.55491959 -10.44443409 19.39019075 -14 16 C-14 15.34 -14 14.68 -14 14 C2.8929385 12.66742597 2.8929385 12.66742597 10 14 C10 12.68 10 11.36 10 10 C9.34 10 8.68 10 8 10 C7.38125 9.05125 6.7625 8.1025 6.125 7.125 C4.12075527 4.17758128 3.25209269 3.16146167 0 2 C0 1.34 0 0.68 0 0 Z " fill="#DBEDE6" transform="translate(112,80)"/>
<path d="M0 0 C5.28 0 10.56 0 16 0 C16 2.64 16 5.28 16 8 C10.72 8 5.44 8 0 8 C0 5.36 0 2.72 0 0 Z " fill="#006900" transform="translate(100,48)"/>
<path d="M0 0 C3.53571429 0.53571429 3.53571429 0.53571429 5 2 C5.07313567 4.53049402 5.09247527 7.03304837 5.0625 9.5625 C5.05798828 10.27341797 5.05347656 10.98433594 5.04882812 11.71679688 C5.03700864 13.47790013 5.01907263 15.23896036 5 17 C2.625 17.625 2.625 17.625 0 18 C-2 16 -2 16 -2.265625 12.8125 C-2.26046875 11.554375 -2.2553125 10.29625 -2.25 9 C-2.25515625 7.741875 -2.2603125 6.48375 -2.265625 5.1875 C-2 2 -2 2 0 0 Z " fill="#E2EEE6" transform="translate(78,60)"/>
<path d="M0 0 C3.53571429 0.53571429 3.53571429 0.53571429 5 2 C5.07313567 4.53049402 5.09247527 7.03304837 5.0625 9.5625 C5.05798828 10.27341797 5.05347656 10.98433594 5.04882812 11.71679688 C5.03700864 13.47790013 5.01907263 15.23896036 5 17 C2.625 17.625 2.625 17.625 0 18 C-2 16 -2 16 -2.265625 12.8125 C-2.26046875 11.554375 -2.2553125 10.29625 -2.25 9 C-2.25515625 7.741875 -2.2603125 6.48375 -2.265625 5.1875 C-2 2 -2 2 0 0 Z " fill="#E7F0EE" transform="translate(62,60)"/>
<path d="M0 0 C5.94 0 11.88 0 18 0 C18 1.32 18 2.64 18 4 C15.525 3.505 15.525 3.505 13 3 C13 2.34 13 1.68 13 1 C11.02 1.33 9.04 1.66 7 2 C7.33 3.98 7.66 5.96 8 8 C9.98 8 11.96 8 14 8 C14.33 7.01 14.66 6.02 15 5 C15 6.65 15 8.3 15 10 C10.05 10 5.1 10 0 10 C0 6.7 0 3.4 0 0 Z " fill="#056B07" transform="translate(62,18)"/>
<path d="M0 0 C1.20462891 -0.02126953 1.20462891 -0.02126953 2.43359375 -0.04296875 C4.5625 0.1875 4.5625 0.1875 6.5625 2.1875 C6.82128906 4.12695312 6.82128906 4.12695312 6.828125 6.46875 C6.83070312 7.31050781 6.83328125 8.15226562 6.8359375 9.01953125 C6.82820313 9.89996094 6.82046875 10.78039063 6.8125 11.6875 C6.82023437 12.56792969 6.82796875 13.44835938 6.8359375 14.35546875 C6.83335938 15.19722656 6.83078125 16.03898437 6.828125 16.90625 C6.82586914 17.67904297 6.82361328 18.45183594 6.82128906 19.24804688 C6.5625 21.1875 6.5625 21.1875 4.5625 23.1875 C2.43359375 23.41796875 2.43359375 23.41796875 0 23.375 C-0.80566406 23.36855469 -1.61132812 23.36210938 -2.44140625 23.35546875 C-4.4375 23.1875 -4.4375 23.1875 -5.4375 22.1875 C-5.53649523 20.63794441 -5.56829524 19.08396327 -5.5703125 17.53125 C-5.57160156 16.59152344 -5.57289062 15.65179688 -5.57421875 14.68359375 C-5.57035156 13.69488281 -5.56648438 12.70617187 -5.5625 11.6875 C-5.56636719 10.69878906 -5.57023437 9.71007812 -5.57421875 8.69140625 C-5.57292969 7.75167969 -5.57164063 6.81195313 -5.5703125 5.84375 C-5.56918457 4.97556641 -5.56805664 4.10738281 -5.56689453 3.21289062 C-5.32487007 -0.57547711 -3.31713251 0.02653706 0 0 Z M-4.4375 3.1875 C-4.4375 8.7975 -4.4375 14.4075 -4.4375 20.1875 C-1.4675 20.1875 1.5025 20.1875 4.5625 20.1875 C4.5625 14.5775 4.5625 8.9675 4.5625 3.1875 C1.5925 3.1875 -1.3775 3.1875 -4.4375 3.1875 Z " fill="#B4DBD1" transform="translate(31.4375,36.8125)"/>
<path d="M0 0 C3.53571429 0.53571429 3.53571429 0.53571429 5 2 C5.12557162 4.30993382 5.17575729 6.62418536 5.1875 8.9375 C5.20167969 10.20464844 5.21585937 11.47179687 5.23046875 12.77734375 C5 16 5 16 3 18 C-0.53571429 17.46428571 -0.53571429 17.46428571 -2 16 C-2.12557162 13.69006618 -2.17575729 11.37581464 -2.1875 9.0625 C-2.20167969 7.79535156 -2.21585937 6.52820313 -2.23046875 5.22265625 C-2 2 -2 2 0 0 Z " fill="#E6F0EC" transform="translate(70,60)"/>
<path d="M0 0 C5.94 0 11.88 0 18 0 C18 0.99 18 1.98 18 3 C12.39 3 6.78 3 1 3 C1 3.66 1 4.32 1 5 C4.96 5 8.92 5 13 5 C13 5.99 13 6.98 13 8 C7.06 8 1.12 8 -5 8 C-5 7.01 -5 6.02 -5 5 C-3.68 5 -2.36 5 -1 5 C-0.67 3.35 -0.34 1.7 0 0 Z " fill="#C1DCD7" transform="translate(104,40)"/>
<path d="M0 0 C5.28 0 10.56 0 16 0 C16 1.65 16 3.3 16 5 C16.66 5 17.32 5 18 5 C17.1875 7.4375 17.1875 7.4375 16 10 C15.01 10.33 14.02 10.66 13 11 C12.34 9.02 11.68 7.04 11 5 C10.37351562 4.93941406 9.74703125 4.87882812 9.1015625 4.81640625 C8.28429687 4.73261719 7.46703125 4.64882812 6.625 4.5625 C5.40683594 4.44068359 5.40683594 4.44068359 4.1640625 4.31640625 C2 4 2 4 0 3 C0 2.01 0 1.02 0 0 Z " fill="#F7FBFA" transform="translate(64,115)"/>
<path d="M0 0 C6.4 -0.36923077 6.4 -0.36923077 9.4375 1.5 C9.953125 1.995 10.46875 2.49 11 3 C10.67 4.32 10.34 5.64 10 7 C8.68 7 7.36 7 6 7 C6 7.99 6 8.98 6 10 C4.0625 9.6875 4.0625 9.6875 2 9 C1.67 8.01 1.34 7.02 1 6 C0.01 5.67 -0.98 5.34 -2 5 C-1.34 3.35 -0.68 1.7 0 0 Z " fill="#EDF8FB" transform="translate(27,87)"/>
<path d="M0 0 C1.32 0 2.64 0 4 0 C3.67 1.32 3.34 2.64 3 4 C1.68 4 0.36 4 -1 4 C-1.66 5.65 -2.32 7.3 -3 9 C-2.01 9 -1.02 9 0 9 C0.33 8.34 0.66 7.68 1 7 C1 7.66 1 8.32 1 9 C1.66 9 2.32 9 3 9 C3 10.65 3 12.3 3 14 C0.03 14 -2.94 14 -6 14 C-6.33 14.66 -6.66 15.32 -7 16 C-7 13.69 -7 11.38 -7 9 C-6.34 8.67 -5.68 8.34 -5 8 C-3.96210419 6.35666496 -2.96432076 4.68756133 -2 3 C-1.34 2.01 -0.68 1.02 0 0 Z " fill="#85C2A6" transform="translate(104,80)"/>
<path d="M0 0 C0.66 0 1.32 0 2 0 C1.67 0.99 1.34 1.98 1 3 C0.67 2.01 0.34 1.02 0 0 Z M2.5625 2.75 C3.70912109 2.71132812 3.70912109 2.71132812 4.87890625 2.671875 C7 3 7 3 8.77734375 4.328125 C10 6 10 6 10 9 C9.34 9 8.68 9 8 9 C8 8.01 8 7.02 8 6 C3.71 6 -0.58 6 -5 6 C-5 6.99 -5 7.98 -5 9 C-5.99 9 -6.98 9 -8 9 C-7.25 6.5625 -7.25 6.5625 -6 4 C-3.17977964 2.9861953 -0.41862612 2.81053048 2.5625 2.75 Z " fill="#056208" transform="translate(109,80)"/>
<path d="M0 0 C5.94 0 11.88 0 18 0 C18 0.99 18 1.98 18 3 C12.06 3 6.12 3 0 3 C0 2.01 0 1.02 0 0 Z " fill="#CDE3DC" transform="translate(104,40)"/>
<path d="M0 0 C1.98 0 3.96 0 6 0 C6 2.97 6 5.94 6 9 C4.02 9 2.04 9 0 9 C0 6.03 0 3.06 0 0 Z " fill="#1C7A25" transform="translate(78,23)"/>
<path d="M0 0 C0.83265381 0.00523682 1.66530762 0.01047363 2.52319336 0.01586914 C3.42231445 0.0190918 4.32143555 0.02231445 5.24780273 0.02563477 C6.66609375 0.03820313 6.66609375 0.03820313 8.11303711 0.05102539 C9.06243164 0.05553711 10.01182617 0.06004883 10.98999023 0.06469727 C13.34356776 0.07652429 15.69702188 0.09300514 18.05053711 0.11352539 C18.05053711 0.44352539 18.05053711 0.77352539 18.05053711 1.11352539 C11.66826766 1.93704403 5.48309112 2.23438757 -0.94946289 2.11352539 C-0.92625977 2.81219727 -0.90305664 3.51086914 -0.87915039 4.23071289 C-0.86110352 5.14079102 -0.84305664 6.05086914 -0.82446289 6.98852539 C-0.80125977 7.89344727 -0.77805664 8.79836914 -0.75415039 9.73071289 C-0.94946289 12.11352539 -0.94946289 12.11352539 -2.94946289 14.11352539 C-2.97632227 11.96775903 -2.99579377 9.82189894 -3.01196289 7.67602539 C-3.02356445 6.48106445 -3.03516602 5.28610352 -3.04711914 4.05493164 C-2.9181352 0.16993524 -2.9181352 0.16993524 0 0 Z " fill="#9CCCAE" transform="translate(62.949462890625,15.886474609375)"/>
<path d="M0 0 C5.28 0 10.56 0 16 0 C16 2.64 16 5.28 16 8 C15.01 8 14.02 8 13 8 C13 6.02 13 4.04 13 2 C8.71 2 4.42 2 0 2 C0 1.34 0 0.68 0 0 Z " fill="#026602" transform="translate(105,43)"/>
<path d="M0 0 C0.33 0.66 0.66 1.32 1 2 C2.32 2 3.64 2 5 2 C5 1.34 5 0.68 5 0 C6.65 0.33 8.3 0.66 10 1 C10 1.66 10 2.32 10 3 C9.01 3 8.02 3 7 3 C7 3.66 7 4.32 7 5 C3.44706507 6.14947895 2.20023331 6.0868937 -1.3125 4.5625 C-2.199375 4.046875 -3.08625 3.53125 -4 3 C-4 2.34 -4 1.68 -4 1 C-2.68 0.67 -1.36 0.34 0 0 Z " fill="#0A6C0F" transform="translate(107,95)"/>
<path d="M0 0 C1.65 0 3.3 0 5 0 C4.67 1.98 4.34 3.96 4 6 C4.66 6.33 5.32 6.66 6 7 C6 7.99 6 8.98 6 10 C4.02 10 2.04 10 0 10 C0 6.7 0 3.4 0 0 Z " fill="#066B06" transform="translate(22,86)"/>
<path d="M0 0 C3.3 0 6.6 0 10 0 C10 0.66 10 1.32 10 2 C9.34 2 8.68 2 8 2 C8 3.32 8 4.64 8 6 C6.02 6 4.04 6 2 6 C2 4.68 2 3.36 2 2 C1.34 2 0.68 2 0 2 C0 1.34 0 0.68 0 0 Z " fill="#036C05" transform="translate(105,87)"/>
<path d="M0 0 C1.65 0.33 3.3 0.66 5 1 C5 1.66 5 2.32 5 3 C6.98 3 8.96 3 11 3 C11.33 2.01 11.66 1.02 12 0 C12 1.65 12 3.3 12 5 C7.71 5 3.42 5 -1 5 C-0.67 3.35 -0.34 1.7 0 0 Z " fill="#489552" transform="translate(65,23)"/>
<path d="M0 0 C0.33 2.31 0.66 4.62 1 7 C-2 8 -2 8 -5 7 C-5.33 5.02 -5.66 3.04 -6 1 C-4 0 -4 0 0 0 Z " fill="#ADCEB5" transform="translate(75,19)"/>
<path d="M0 0 C1.65 0 3.3 0 5 0 C5 3.3 5 6.6 5 10 C3.02 10 1.04 10 -1 10 C-0.34 9.01 0.32 8.02 1 7 C0.68269476 3.36060068 0.68269476 3.36060068 0 0 Z " fill="#0A6D0E" transform="translate(36,86)"/>
<path d="M0 0 C4.29 0.33 8.58 0.66 13 1 C13 1.99 13 2.98 13 4 C11.20841511 4.02696365 9.41671527 4.04637917 7.625 4.0625 C6.62726563 4.07410156 5.62953125 4.08570312 4.6015625 4.09765625 C2 4 2 4 0 3 C0 2.01 0 1.02 0 0 Z " fill="#E4F0E9" transform="translate(64,115)"/>
<path d="M0 0 C0.99 0.33 1.98 0.66 3 1 C4.89470816 1.0685495 6.7916834 1.08480372 8.6875 1.0625 C9.68136719 1.05347656 10.67523438 1.04445313 11.69921875 1.03515625 C12.45847656 1.02355469 13.21773437 1.01195313 14 1 C14 1.66 14 2.32 14 3 C10.29873141 5.46751239 8.37776468 5.30721156 4 5 C1.5625 4 1.5625 4 0 3 C0 2.01 0 1.02 0 0 Z " fill="#EDF5F1" transform="translate(64,110)"/>
<path d="M0 0 C2 3 2 3 2 11 C7.28 11 12.56 11 18 11 C18 11.33 18 11.66 18 12 C15.18780295 12.19384179 12.37545804 12.38036603 9.5625 12.5625 C8.35883789 12.64661133 8.35883789 12.64661133 7.13085938 12.73242188 C5.08937889 12.8616295 3.04453631 12.9351273 1 13 C0 12 0 12 -0.09765625 9.27734375 C-0.08605469 8.17519531 -0.07445313 7.07304688 -0.0625 5.9375 C-0.05347656 4.83277344 -0.04445313 3.72804687 -0.03515625 2.58984375 C-0.02355469 1.73519531 -0.01195313 0.88054688 0 0 Z " fill="#99C5A8" transform="translate(98,45)"/>
<path d="M0 0 C3.27233819 0.87262352 5.49087971 1.47390904 7.875 3.9375 C9 6 9 6 9 9 C9.66 9 10.32 9 11 9 C11 11.31 11 13.62 11 16 C8.03 15.505 8.03 15.505 5 15 C5 14.67 5 14.34 5 14 C6.65 14 8.3 14 10 14 C10 12.68 10 11.36 10 10 C9.34 10 8.68 10 8 10 C7.38125 9.05125 6.7625 8.1025 6.125 7.125 C4.12075527 4.17758128 3.25209269 3.16146167 0 2 C0 1.34 0 0.68 0 0 Z " fill="#D0E7DC" transform="translate(112,80)"/>
<path d="M0 0 C4.95 0.99 4.95 0.99 10 2 C10 2.99 10 3.98 10 5 C2.25 5.125 2.25 5.125 0 4 C0 2.68 0 1.36 0 0 Z " fill="#E7F3ED" transform="translate(64,119)"/>
<path d="M0 0 C7.75 -0.125 7.75 -0.125 10 1 C10 1.66 10 2.32 10 3 C2.57142857 4.28571429 2.57142857 4.28571429 -1 3 C-0.67 2.01 -0.34 1.02 0 0 Z " fill="#EBF5F1" transform="translate(67,107)"/>
<path d="M0 0 C2.97 0 5.94 0 9 0 C9.33 0.99 9.66 1.98 10 3 C6.37 3 2.74 3 -1 3 C-0.67 2.01 -0.34 1.02 0 0 Z " fill="#C3E1D5" transform="translate(27,37)"/>
<path d="M0 0 C5.28 0 10.56 0 16 0 C16 1.32 16 2.64 16 4 C14.35 3.67 12.7 3.34 11 3 C11 2.34 11 1.68 11 1 C9.6696875 1.2784375 9.6696875 1.2784375 8.3125 1.5625 C5.14821189 1.98042484 3.05160358 1.80777742 0 1 C0 0.67 0 0.34 0 0 Z " fill="#0C6B15" transform="translate(64,18)"/>
<path d="M0 0 C3.63 0 7.26 0 11 0 C11 1.98 11 3.96 11 6 C10.34 6 9.68 6 9 6 C9 4.68 9 3.36 9 2 C6.03 2 3.06 2 0 2 C0 1.34 0 0.68 0 0 Z " fill="#096B0D" transform="translate(33,82)"/>
<path d="M0 0 C2.31 0 4.62 0 7 0 C7 1.32 7 2.64 7 4 C4.69 4 2.38 4 0 4 C0 2.68 0 1.36 0 0 Z " fill="#006701" transform="translate(115,90)"/>
<path d="M0 0 C2.31 0 4.62 0 7 0 C7 1.32 7 2.64 7 4 C4.69 4 2.38 4 0 4 C0 2.68 0 1.36 0 0 Z " fill="#016A05" transform="translate(99,90)"/>
<path d="M0 0 C3.96 0 7.92 0 12 0 C10.02 0.99 10.02 0.99 8 2 C8.33 2.99 8.66 3.98 9 5 C8.01 5.495 8.01 5.495 7 6 C6.34 5.01 5.68 4.02 5 3 C2.43717258 2.27034634 2.43717258 2.27034634 0 2 C0 1.34 0 0.68 0 0 Z " fill="#9FD6D3" transform="translate(29,85)"/>
<path d="M0 0 C-0.33 1.32 -0.66 2.64 -1 4 C-2.32 4 -3.64 4 -5 4 C-5.66 5.65 -6.32 7.3 -7 9 C-7.75 7.3125 -7.75 7.3125 -8 5 C-4.93181818 0 -4.93181818 0 0 0 Z " fill="#DAEDE3" transform="translate(108,80)"/>
<path d="M0 0 C4.29 0.33 8.58 0.66 13 1 C13 1.33 13 1.66 13 2 C9.04 2 5.08 2 1 2 C1 2.99 1 3.98 1 5 C0.01 5 -0.98 5 -2 5 C-1.34 3.35 -0.68 1.7 0 0 Z " fill="#338A43" transform="translate(103,84)"/>
<path d="M0 0 C3.96 0 7.92 0 12 0 C12.33 0.99 12.66 1.98 13 3 C11.02 3 9.04 3 7 3 C7 2.67 7 2.34 7 2 C4.69 1.67 2.38 1.34 0 1 C0 0.67 0 0.34 0 0 Z " fill="#C7E6E2" transform="translate(61,30)"/>
<path d="M0 0 C0.66 0.99 1.32 1.98 2 3 C1.01 4.485 1.01 4.485 0 6 C-2.625 6.1875 -2.625 6.1875 -5 6 C-5 5.34 -5 4.68 -5 4 C-4.34 4 -3.68 4 -3 4 C-3 3.34 -3 2.68 -3 2 C-2.01 2 -1.02 2 0 2 C0 1.34 0 0.68 0 0 Z " fill="#CFE7DD" transform="translate(117,96)"/>
<path d="M0 0 C3.3 0 6.6 0 10 0 C9.67 0.99 9.34 1.98 9 3 C7.35 3 5.7 3 4 3 C4 2.34 4 1.68 4 1 C2.68 0.67 1.36 0.34 0 0 Z " fill="#CDE7DE" transform="translate(27,57)"/>
</svg>
