<?xml version="1.0" standalone="no"?>
<!DOCTYPE svg PUBLIC "-//W3C//DTD SVG 20010904//EN"
 "http://www.w3.org/TR/2001/REC-SVG-20010904/DTD/svg10.dtd">
<svg version="1.0" xmlns="http://www.w3.org/2000/svg"
 width="389.000000pt" height="389.000000pt" viewBox="0 0 389.000000 389.000000"
 preserveAspectRatio="xMidYMid meet">

<g transform="translate(0.000000,389.000000) scale(0.100000,-0.100000)"
fill="#000000" stroke="none">
<path d="M1835 3735 c-137 -19 -248 -50 -351 -99 -88 -42 -245 -141 -244 -155
1 -3 18 -25 38 -48 l38 -43 51 38 c64 49 208 124 290 151 293 99 644 41 887
-146 l60 -46 37 44 c21 24 39 47 39 50 0 11 -141 104 -207 138 -131 65 -252
100 -423 121 -99 12 -98 12 -215 -5z"/>
<path d="M1770 3345 l0 -115 -35 -17 -36 -17 -79 79 -80 80 -145 -145 c-80
-80 -145 -149 -145 -155 0 -5 30 -40 67 -77 67 -68 68 -69 53 -96 -16 -27 -18
-27 -113 -27 l-97 0 0 -212 0 -213 98 0 98 0 13 -36 c13 -36 13 -37 -31 -83
-24 -25 -58 -62 -76 -82 l-34 -37 148 -151 147 -151 82 75 83 75 36 -15 36
-15 0 -95 0 -95 210 0 210 0 0 95 c0 93 0 95 28 109 27 15 28 14 105 -62 l77
-77 145 145 c80 80 145 147 145 151 0 3 -34 42 -75 87 l-75 81 16 40 16 41
114 0 114 0 0 213 0 212 -109 -3 -110 -3 -15 28 c-15 28 -15 28 62 106 l77 77
-150 150 -150 150 -73 -79 -72 -79 -30 15 -30 14 0 115 0 114 -210 0 -210 0 0
-115z m304 -108 l9 -107 41 -11 c23 -6 65 -24 94 -39 l53 -29 64 67 64 67 63
-63 63 -63 -68 -66 -67 -65 35 -63 c19 -35 35 -77 35 -94 l0 -30 108 -3 107
-3 0 -95 0 -95 -106 -3 -106 -3 -12 -51 c-6 -29 -24 -76 -38 -105 l-27 -52 67
-74 66 -74 -65 -64 -64 -64 -66 66 -66 66 -61 -32 c-34 -18 -79 -36 -99 -39
l-37 -7 -3 -85 -3 -86 -90 0 -90 0 -3 86 c-3 91 -2 89 -65 100 -15 3 -52 18
-82 34 l-54 30 -72 -65 -72 -65 -63 63 c-35 35 -64 67 -64 71 0 4 29 39 65 76
l65 69 -31 63 c-18 34 -34 82 -37 106 l-5 43 -91 3 -91 3 0 90 0 90 93 3 c91
3 92 3 92 28 0 15 17 57 38 95 l37 68 -63 63 -62 64 65 64 65 64 69 -68 68
-68 56 30 c30 16 77 35 104 41 l48 12 2 99 c1 55 5 104 8 110 4 7 39 10 88 8
l82 -3 9 -108z"/>
<path d="M1884 2880 c-106 -33 -194 -148 -194 -253 0 -90 16 -126 84 -193 64
-63 111 -84 189 -84 121 0 241 108 261 237 15 97 -42 208 -136 266 -52 32
-147 45 -204 27z m154 -130 c89 -54 97 -175 18 -249 -20 -19 -40 -26 -85 -29
-104 -8 -161 44 -161 148 0 97 52 149 150 150 28 0 57 -8 78 -20z"/>
<path d="M1055 3279 c-62 -84 -139 -245 -170 -352 -97 -344 -19 -741 198
-1009 19 -24 26 -23 70 18 l38 35 -65 97 c-123 184 -188 413 -171 602 17 194
71 349 172 498 35 51 63 94 63 96 0 1 -20 19 -45 39 l-45 38 -45 -62z"/>
<path d="M2771 3301 l-44 -38 55 -79 c187 -270 233 -586 129 -886 -27 -78 -94
-205 -142 -269 -21 -29 -39 -55 -38 -58 0 -8 79 -71 88 -71 15 0 95 123 141
215 163 327 157 693 -15 1035 -27 54 -119 191 -127 190 -2 0 -23 -18 -47 -39z"/>
<path d="M3217 2349 c-14 -29 -25 -55 -22 -58 2 -3 98 -53 214 -111 116 -58
211 -107 211 -110 0 -3 -33 -22 -72 -42 -40 -21 -165 -85 -278 -143 -113 -59
-358 -186 -545 -282 -187 -97 -362 -188 -390 -203 -27 -15 -127 -66 -222 -114
l-172 -88 -43 25 c-24 13 -128 68 -233 122 -104 54 -278 144 -385 200 -107 56
-292 152 -410 213 -343 178 -360 187 -360 192 0 3 67 38 148 79 81 41 148 76
150 77 2 1 -9 27 -25 57 l-28 56 -193 -101 -193 -100 3 -70 3 -69 110 -58
c186 -97 418 -217 690 -358 143 -75 371 -193 506 -264 135 -71 254 -129 264
-129 10 0 138 62 284 139 146 76 374 194 506 262 132 68 299 154 370 191 72
37 250 130 398 205 l267 138 0 65 0 65 -258 130 c-141 72 -260 131 -263 133
-3 1 -17 -21 -32 -49z"/>
<path d="M3650 1831 c0 -27 -6 -53 -12 -58 -7 -6 -116 -63 -243 -128 -249
-128 -412 -212 -603 -312 -122 -64 -468 -242 -718 -370 l-130 -66 -210 108
c-115 59 -348 181 -519 270 -170 89 -400 208 -510 265 -110 56 -206 107 -213
113 -6 5 -12 31 -12 58 l0 49 -55 0 -56 0 3 -92 c3 -92 3 -93 33 -108 17 -8
149 -78 295 -154 146 -76 328 -171 405 -211 77 -40 296 -154 487 -254 190 -99
349 -181 353 -181 3 0 124 61 268 136 144 75 316 164 382 199 66 34 357 185
648 335 l527 272 0 89 0 89 -60 0 -60 0 0 -49z"/>
<path d="M1275 1805 l-37 -45 24 -20 c95 -81 271 -169 413 -207 91 -24 116
-26 285 -26 168 0 194 2 285 26 113 30 313 125 387 184 26 21 47 40 47 43 1 3
-16 24 -37 48 l-37 43 -55 -41 c-110 -83 -214 -132 -365 -172 -114 -31 -336
-31 -450 0 -147 39 -242 83 -350 162 -27 20 -55 39 -61 43 -7 4 -27 -12 -49
-38z"/>
<path d="M3650 1526 l0 -55 -142 -72 c-126 -63 -274 -140 -723 -374 -66 -34
-230 -119 -365 -188 -135 -69 -297 -153 -360 -186 l-115 -60 -155 81 c-85 44
-200 104 -255 133 -55 29 -181 94 -280 145 -99 51 -259 134 -355 185 -96 51
-230 120 -297 154 l-123 62 0 55 0 54 -54 0 c-52 0 -55 -1 -58 -27 -2 -16 -2
-58 0 -94 l4 -66 341 -178 c413 -215 997 -519 1126 -586 52 -27 99 -49 106
-49 7 0 54 22 106 49 52 27 222 115 379 196 157 81 330 171 385 200 55 29 215
111 355 183 140 72 332 171 425 220 l170 89 3 91 3 92 -61 0 -60 0 0 -54z"/>
<path d="M3648 1219 l-3 -51 -220 -115 c-121 -63 -312 -162 -425 -220 -113
-58 -395 -204 -626 -324 -232 -121 -425 -219 -430 -219 -4 0 -114 56 -243 124
-130 68 -297 155 -371 193 -316 164 -691 360 -765 399 l-80 43 -3 50 -3 51
-55 0 -55 0 3 -91 3 -92 205 -107 c113 -58 394 -205 625 -325 231 -120 492
-256 580 -302 114 -60 164 -81 175 -75 8 5 119 62 245 127 127 65 336 173 465
240 261 136 456 236 725 375 99 51 224 115 278 143 l97 51 0 88 0 88 -59 0
-60 0 -3 -51z"/>
</g>
</svg>
